<svg width="25" height="25" viewBox="0 0 25 25" fill="none" xmlns="http://www.w3.org/2000/svg">
<path d="M22.4302 8.06025C22.446 8.28232 22.446 8.50444 22.446 8.72651C22.446 15.5 17.2906 23.3045 7.86802 23.3045C4.96509 23.3045 2.26841 22.4638 0 21.0044C0.412451 21.052 0.808984 21.0679 1.2373 21.0679C3.63257 21.0679 5.83755 20.2589 7.59834 18.8788C5.3458 18.8312 3.45811 17.356 2.80771 15.3255C3.125 15.373 3.44224 15.4048 3.77539 15.4048C4.2354 15.4048 4.69546 15.3413 5.12373 15.2303C2.77603 14.7544 1.01519 12.6922 1.01519 10.2018V10.1383C1.69727 10.519 2.49048 10.757 3.33115 10.7887C1.95107 9.8686 1.04692 8.29819 1.04692 6.52153C1.04692 5.56978 1.30068 4.69731 1.74487 3.93589C4.26709 7.04502 8.05835 9.07544 12.3096 9.29756C12.2303 8.91685 12.1827 8.52031 12.1827 8.12373C12.1827 5.3001 14.4669 3 17.3064 3C18.7816 3 20.1141 3.61865 21.05 4.61802C22.208 4.39595 23.3184 3.96763 24.302 3.38071C23.9212 4.57046 23.1122 5.56982 22.0494 6.2043C23.0805 6.09331 24.0799 5.80771 24.9999 5.41118C24.302 6.42637 23.4295 7.33052 22.4302 8.06025Z" fill="#091156"/>
</svg>
